<mxfile host="app.diagrams.net" agent="Mozilla/5.0 (X11; Linux x86_64) AppleWebKit/537.36 (KHTML, like Gecko) Chrome/128.0.0.0 Safari/537.36" version="24.7.12">
  <diagram name="Page-1" id="F1T-MnN5JAGrfdBgi1mE">
    <mxGraphModel dx="1434" dy="793" grid="1" gridSize="10" guides="1" tooltips="1" connect="1" arrows="1" fold="1" page="1" pageScale="1" pageWidth="850" pageHeight="1100" math="0" shadow="0">
      <root>
        <mxCell id="0" />
        <mxCell id="1" parent="0" />
        <mxCell id="XDM6ZoOoq-HcUxWu5fws-23" style="edgeStyle=orthogonalEdgeStyle;rounded=0;orthogonalLoop=1;jettySize=auto;html=1;entryX=0.5;entryY=0;entryDx=0;entryDy=0;" edge="1" parent="1" source="XDM6ZoOoq-HcUxWu5fws-1" target="XDM6ZoOoq-HcUxWu5fws-2">
          <mxGeometry relative="1" as="geometry" />
        </mxCell>
        <mxCell id="XDM6ZoOoq-HcUxWu5fws-1" value="SCENE" style="rounded=0;whiteSpace=wrap;html=1;" vertex="1" parent="1">
          <mxGeometry x="300" y="50" width="120" height="60" as="geometry" />
        </mxCell>
        <mxCell id="XDM6ZoOoq-HcUxWu5fws-2" value="Objects" style="rounded=0;whiteSpace=wrap;html=1;" vertex="1" parent="1">
          <mxGeometry x="300" y="210" width="120" height="60" as="geometry" />
        </mxCell>
        <mxCell id="XDM6ZoOoq-HcUxWu5fws-8" style="edgeStyle=orthogonalEdgeStyle;rounded=0;orthogonalLoop=1;jettySize=auto;html=1;entryX=0.5;entryY=1;entryDx=0;entryDy=0;" edge="1" parent="1" source="XDM6ZoOoq-HcUxWu5fws-4" target="XDM6ZoOoq-HcUxWu5fws-2">
          <mxGeometry relative="1" as="geometry" />
        </mxCell>
        <mxCell id="XDM6ZoOoq-HcUxWu5fws-4" value="World Object" style="rounded=0;whiteSpace=wrap;html=1;" vertex="1" parent="1">
          <mxGeometry x="295" y="390" width="130" height="60" as="geometry" />
        </mxCell>
        <mxCell id="XDM6ZoOoq-HcUxWu5fws-45" style="edgeStyle=orthogonalEdgeStyle;rounded=0;orthogonalLoop=1;jettySize=auto;html=1;entryX=1;entryY=0.5;entryDx=0;entryDy=0;" edge="1" parent="1" source="XDM6ZoOoq-HcUxWu5fws-5" target="XDM6ZoOoq-HcUxWu5fws-4">
          <mxGeometry relative="1" as="geometry" />
        </mxCell>
        <mxCell id="XDM6ZoOoq-HcUxWu5fws-5" value="Simulators" style="rounded=0;whiteSpace=wrap;html=1;" vertex="1" parent="1">
          <mxGeometry x="545" y="390" width="120" height="60" as="geometry" />
        </mxCell>
        <mxCell id="XDM6ZoOoq-HcUxWu5fws-63" style="edgeStyle=orthogonalEdgeStyle;rounded=0;orthogonalLoop=1;jettySize=auto;html=1;exitX=0.25;exitY=0;exitDx=0;exitDy=0;entryX=0.75;entryY=1;entryDx=0;entryDy=0;" edge="1" parent="1" source="XDM6ZoOoq-HcUxWu5fws-10" target="XDM6ZoOoq-HcUxWu5fws-4">
          <mxGeometry relative="1" as="geometry" />
        </mxCell>
        <mxCell id="XDM6ZoOoq-HcUxWu5fws-10" value="ground" style="rounded=0;whiteSpace=wrap;html=1;" vertex="1" parent="1">
          <mxGeometry x="390" y="520" width="120" height="60" as="geometry" />
        </mxCell>
        <mxCell id="XDM6ZoOoq-HcUxWu5fws-60" style="edgeStyle=orthogonalEdgeStyle;rounded=0;orthogonalLoop=1;jettySize=auto;html=1;exitX=0.75;exitY=0;exitDx=0;exitDy=0;entryX=0.391;entryY=1.053;entryDx=0;entryDy=0;entryPerimeter=0;" edge="1" parent="1" source="XDM6ZoOoq-HcUxWu5fws-12" target="XDM6ZoOoq-HcUxWu5fws-4">
          <mxGeometry relative="1" as="geometry">
            <mxPoint x="350" y="460" as="targetPoint" />
          </mxGeometry>
        </mxCell>
        <mxCell id="XDM6ZoOoq-HcUxWu5fws-12" value="light" style="rounded=0;whiteSpace=wrap;html=1;" vertex="1" parent="1">
          <mxGeometry x="170" y="590" width="120" height="60" as="geometry" />
        </mxCell>
        <mxCell id="XDM6ZoOoq-HcUxWu5fws-16" value="model" style="rounded=0;whiteSpace=wrap;html=1;" vertex="1" parent="1">
          <mxGeometry x="310" y="590" width="120" height="60" as="geometry" />
        </mxCell>
        <mxCell id="XDM6ZoOoq-HcUxWu5fws-20" style="edgeStyle=orthogonalEdgeStyle;rounded=0;orthogonalLoop=1;jettySize=auto;html=1;entryX=0.199;entryY=1.039;entryDx=0;entryDy=0;entryPerimeter=0;" edge="1" parent="1" source="XDM6ZoOoq-HcUxWu5fws-18" target="XDM6ZoOoq-HcUxWu5fws-4">
          <mxGeometry relative="1" as="geometry" />
        </mxCell>
        <mxCell id="XDM6ZoOoq-HcUxWu5fws-18" value="background/sky" style="rounded=0;whiteSpace=wrap;html=1;" vertex="1" parent="1">
          <mxGeometry x="110" y="470" width="120" height="60" as="geometry" />
        </mxCell>
        <mxCell id="XDM6ZoOoq-HcUxWu5fws-25" style="edgeStyle=orthogonalEdgeStyle;rounded=0;orthogonalLoop=1;jettySize=auto;html=1;entryX=0.5;entryY=1;entryDx=0;entryDy=0;" edge="1" parent="1" source="XDM6ZoOoq-HcUxWu5fws-24" target="XDM6ZoOoq-HcUxWu5fws-5">
          <mxGeometry relative="1" as="geometry" />
        </mxCell>
        <mxCell id="XDM6ZoOoq-HcUxWu5fws-24" value="Simulator Object" style="rounded=0;whiteSpace=wrap;html=1;" vertex="1" parent="1">
          <mxGeometry x="545" y="540" width="120" height="60" as="geometry" />
        </mxCell>
        <mxCell id="XDM6ZoOoq-HcUxWu5fws-27" style="edgeStyle=orthogonalEdgeStyle;rounded=0;orthogonalLoop=1;jettySize=auto;html=1;entryX=0.5;entryY=0;entryDx=0;entryDy=0;" edge="1" parent="1" source="XDM6ZoOoq-HcUxWu5fws-26" target="XDM6ZoOoq-HcUxWu5fws-5">
          <mxGeometry relative="1" as="geometry" />
        </mxCell>
        <mxCell id="XDM6ZoOoq-HcUxWu5fws-26" value="Simulator UI object" style="rounded=0;whiteSpace=wrap;html=1;" vertex="1" parent="1">
          <mxGeometry x="545" y="240" width="120" height="60" as="geometry" />
        </mxCell>
        <mxCell id="XDM6ZoOoq-HcUxWu5fws-28" value="simulator ui transform" style="ellipse;whiteSpace=wrap;html=1;" vertex="1" parent="1">
          <mxGeometry x="530" y="320" width="150" height="40" as="geometry" />
        </mxCell>
        <mxCell id="XDM6ZoOoq-HcUxWu5fws-30" value="simulator object transform" style="ellipse;whiteSpace=wrap;html=1;" vertex="1" parent="1">
          <mxGeometry x="530" y="480" width="150" height="40" as="geometry" />
        </mxCell>
        <mxCell id="XDM6ZoOoq-HcUxWu5fws-39" value="model transform" style="ellipse;whiteSpace=wrap;html=1;" vertex="1" parent="1">
          <mxGeometry x="300" y="320" width="120" height="30" as="geometry" />
        </mxCell>
        <mxCell id="XDM6ZoOoq-HcUxWu5fws-51" style="edgeStyle=orthogonalEdgeStyle;rounded=0;orthogonalLoop=1;jettySize=auto;html=1;entryX=0.5;entryY=0;entryDx=0;entryDy=0;" edge="1" parent="1" source="XDM6ZoOoq-HcUxWu5fws-46" target="XDM6ZoOoq-HcUxWu5fws-55">
          <mxGeometry relative="1" as="geometry">
            <mxPoint x="240" y="280.0000000000001" as="targetPoint" />
          </mxGeometry>
        </mxCell>
        <mxCell id="XDM6ZoOoq-HcUxWu5fws-46" value="RidigBody" style="shape=hexagon;perimeter=hexagonPerimeter2;whiteSpace=wrap;html=1;fixedSize=1;" vertex="1" parent="1">
          <mxGeometry x="30" y="200" width="130" height="30" as="geometry" />
        </mxCell>
        <mxCell id="XDM6ZoOoq-HcUxWu5fws-57" style="edgeStyle=orthogonalEdgeStyle;rounded=0;orthogonalLoop=1;jettySize=auto;html=1;" edge="1" parent="1" source="XDM6ZoOoq-HcUxWu5fws-48">
          <mxGeometry relative="1" as="geometry">
            <mxPoint x="240" y="410" as="targetPoint" />
          </mxGeometry>
        </mxCell>
        <mxCell id="XDM6ZoOoq-HcUxWu5fws-48" value="ModelTransform" style="shape=hexagon;perimeter=hexagonPerimeter2;whiteSpace=wrap;html=1;fixedSize=1;" vertex="1" parent="1">
          <mxGeometry x="30" y="240" width="130" height="30" as="geometry" />
        </mxCell>
        <mxCell id="XDM6ZoOoq-HcUxWu5fws-58" style="edgeStyle=orthogonalEdgeStyle;rounded=0;orthogonalLoop=1;jettySize=auto;html=1;" edge="1" parent="1" source="XDM6ZoOoq-HcUxWu5fws-49">
          <mxGeometry relative="1" as="geometry">
            <mxPoint x="240" y="410" as="targetPoint" />
          </mxGeometry>
        </mxCell>
        <mxCell id="XDM6ZoOoq-HcUxWu5fws-49" value="Children" style="shape=hexagon;perimeter=hexagonPerimeter2;whiteSpace=wrap;html=1;fixedSize=1;" vertex="1" parent="1">
          <mxGeometry x="30" y="280" width="130" height="30" as="geometry" />
        </mxCell>
        <mxCell id="XDM6ZoOoq-HcUxWu5fws-59" style="edgeStyle=orthogonalEdgeStyle;rounded=0;orthogonalLoop=1;jettySize=auto;html=1;entryX=0.5;entryY=0;entryDx=0;entryDy=0;" edge="1" parent="1" source="XDM6ZoOoq-HcUxWu5fws-50" target="XDM6ZoOoq-HcUxWu5fws-55">
          <mxGeometry relative="1" as="geometry" />
        </mxCell>
        <mxCell id="XDM6ZoOoq-HcUxWu5fws-50" value="Parent" style="shape=hexagon;perimeter=hexagonPerimeter2;whiteSpace=wrap;html=1;fixedSize=1;" vertex="1" parent="1">
          <mxGeometry x="30" y="320" width="130" height="30" as="geometry" />
        </mxCell>
        <mxCell id="XDM6ZoOoq-HcUxWu5fws-56" style="edgeStyle=orthogonalEdgeStyle;rounded=0;orthogonalLoop=1;jettySize=auto;html=1;entryX=0;entryY=0.5;entryDx=0;entryDy=0;" edge="1" parent="1" source="XDM6ZoOoq-HcUxWu5fws-55" target="XDM6ZoOoq-HcUxWu5fws-4">
          <mxGeometry relative="1" as="geometry" />
        </mxCell>
        <mxCell id="XDM6ZoOoq-HcUxWu5fws-55" value="" style="ellipse;whiteSpace=wrap;html=1;aspect=fixed;" vertex="1" parent="1">
          <mxGeometry x="230" y="410" width="20" height="20" as="geometry" />
        </mxCell>
        <mxCell id="XDM6ZoOoq-HcUxWu5fws-61" style="edgeStyle=orthogonalEdgeStyle;rounded=0;orthogonalLoop=1;jettySize=auto;html=1;exitX=0.5;exitY=0;exitDx=0;exitDy=0;entryX=0.583;entryY=1.039;entryDx=0;entryDy=0;entryPerimeter=0;" edge="1" parent="1" source="XDM6ZoOoq-HcUxWu5fws-16" target="XDM6ZoOoq-HcUxWu5fws-4">
          <mxGeometry relative="1" as="geometry" />
        </mxCell>
        <mxCell id="XDM6ZoOoq-HcUxWu5fws-67" style="edgeStyle=orthogonalEdgeStyle;rounded=0;orthogonalLoop=1;jettySize=auto;html=1;entryX=1;entryY=0.5;entryDx=0;entryDy=0;" edge="1" parent="1" source="XDM6ZoOoq-HcUxWu5fws-64" target="XDM6ZoOoq-HcUxWu5fws-5">
          <mxGeometry relative="1" as="geometry" />
        </mxCell>
        <mxCell id="XDM6ZoOoq-HcUxWu5fws-64" value="UI_Transform" style="shape=hexagon;perimeter=hexagonPerimeter2;whiteSpace=wrap;html=1;fixedSize=1;" vertex="1" parent="1">
          <mxGeometry x="700" y="405" width="130" height="30" as="geometry" />
        </mxCell>
        <mxCell id="XDM6ZoOoq-HcUxWu5fws-66" style="edgeStyle=orthogonalEdgeStyle;rounded=0;orthogonalLoop=1;jettySize=auto;html=1;entryX=1;entryY=0.5;entryDx=0;entryDy=0;" edge="1" parent="1" source="XDM6ZoOoq-HcUxWu5fws-65" target="XDM6ZoOoq-HcUxWu5fws-24">
          <mxGeometry relative="1" as="geometry" />
        </mxCell>
        <mxCell id="XDM6ZoOoq-HcUxWu5fws-65" value="SimObjectTransform" style="shape=hexagon;perimeter=hexagonPerimeter2;whiteSpace=wrap;html=1;fixedSize=1;" vertex="1" parent="1">
          <mxGeometry x="700" y="555" width="130" height="30" as="geometry" />
        </mxCell>
      </root>
    </mxGraphModel>
  </diagram>
</mxfile>
